# xmcd CD database file
#
# Track frame offsets:
#	150
#	12739
#	24917
#	32056
#	43607
#	52577
#	63866
#	77178
#	87543
#	99328
#	109707
#
# Disc length: 1655 seconds
#
# Revision: 0
# Processed by: cddbd v1.4PL0 Copyright (c) Steve Scherf et al.
# Submitted via: NeoAudio 9.9.9
#
DISCID=7d06750b
DTITLE=Arcade - Into The Light
DYEAR=2003
DGENRE=Rhythmic Soul
TTITLE0=Black As...
TTITLE1=Butchwax
TTITLE2=No Good
TTITLE3=Ode To A Fallen Idol
TTITLE4=Holly
TTITLE5=Dirty Knees
TTITLE6=Into The Light
TTITLE7=Too Low
TTITLE8=Closer To The Moon
TTITLE9=Bank Of America
TTITLE10=Slipper
EXTD=YEAR: 2003
EXTT0=
EXTT1=
EXTT2=
EXTT3=
EXTT4=
EXTT5=
EXTT6=
EXTT7=
EXTT8=
EXTT9=
EXTT10=
PLAYORDER=
